<?xml version="1.0" encoding="utf-8"?>
<svg xmlns="http://www.w3.org/2000/svg" xmlns:xlink="http://www.w3.org/1999/xlink" style="margin: auto; background: none; display: block; shape-rendering: auto;" width="191px" height="191px" viewBox="0 0 100 100" preserveAspectRatio="xMidYMid">
<g transform="rotate(0 50 50)">
  <rect x="44" y="14" rx="6" ry="6" width="12" height="12" fill="#ec0e97">
    <animate attributeName="opacity" values="1;0" keyTimes="0;1" dur="2.4390243902439024s" begin="-2.195121951219512s" repeatCount="indefinite"></animate>
  </rect>
</g><g transform="rotate(36 50 50)">
  <rect x="44" y="14" rx="6" ry="6" width="12" height="12" fill="#ec0e97">
    <animate attributeName="opacity" values="1;0" keyTimes="0;1" dur="2.4390243902439024s" begin="-1.9512195121951217s" repeatCount="indefinite"></animate>
  </rect>
</g><g transform="rotate(72 50 50)">
  <rect x="44" y="14" rx="6" ry="6" width="12" height="12" fill="#ec0e97">
    <animate attributeName="opacity" values="1;0" keyTimes="0;1" dur="2.4390243902439024s" begin="-1.7073170731707314s" repeatCount="indefinite"></animate>
  </rect>
</g><g transform="rotate(108 50 50)">
  <rect x="44" y="14" rx="6" ry="6" width="12" height="12" fill="#ec0e97">
    <animate attributeName="opacity" values="1;0" keyTimes="0;1" dur="2.4390243902439024s" begin="-1.4634146341463412s" repeatCount="indefinite"></animate>
  </rect>
</g><g transform="rotate(144 50 50)">
  <rect x="44" y="14" rx="6" ry="6" width="12" height="12" fill="#ec0e97">
    <animate attributeName="opacity" values="1;0" keyTimes="0;1" dur="2.4390243902439024s" begin="-1.219512195121951s" repeatCount="indefinite"></animate>
  </rect>
</g><g transform="rotate(180 50 50)">
  <rect x="44" y="14" rx="6" ry="6" width="12" height="12" fill="#ec0e97">
    <animate attributeName="opacity" values="1;0" keyTimes="0;1" dur="2.4390243902439024s" begin="-0.9756097560975608s" repeatCount="indefinite"></animate>
  </rect>
</g><g transform="rotate(216 50 50)">
  <rect x="44" y="14" rx="6" ry="6" width="12" height="12" fill="#ec0e97">
    <animate attributeName="opacity" values="1;0" keyTimes="0;1" dur="2.4390243902439024s" begin="-0.7317073170731706s" repeatCount="indefinite"></animate>
  </rect>
</g><g transform="rotate(252 50 50)">
  <rect x="44" y="14" rx="6" ry="6" width="12" height="12" fill="#ec0e97">
    <animate attributeName="opacity" values="1;0" keyTimes="0;1" dur="2.4390243902439024s" begin="-0.4878048780487804s" repeatCount="indefinite"></animate>
  </rect>
</g><g transform="rotate(288 50 50)">
  <rect x="44" y="14" rx="6" ry="6" width="12" height="12" fill="#ec0e97">
    <animate attributeName="opacity" values="1;0" keyTimes="0;1" dur="2.4390243902439024s" begin="-0.2439024390243902s" repeatCount="indefinite"></animate>
  </rect>
</g><g transform="rotate(324 50 50)">
  <rect x="44" y="14" rx="6" ry="6" width="12" height="12" fill="#ec0e97">
    <animate attributeName="opacity" values="1;0" keyTimes="0;1" dur="2.4390243902439024s" begin="0s" repeatCount="indefinite"></animate>
  </rect>
</g>
<!-- [ldio] generated by https://loading.io/ --></svg>